<?xml version="1.0" standalone="no"?>
<!DOCTYPE svg PUBLIC "-//W3C//DTD SVG 20010904//EN"
 "http://www.w3.org/TR/2001/REC-SVG-20010904/DTD/svg10.dtd">
<svg version="1.0" xmlns="http://www.w3.org/2000/svg"
 width="796.000000pt" height="130.000000pt" viewBox="0 0 796.000000 130.000000"
 preserveAspectRatio="xMidYMid meet">

<g transform="translate(0.000000,130.000000) scale(0.100000,-0.100000)"
fill="#000000" stroke="none">
<path d="M5037 1239 c-26 -5 -73 -21 -104 -35 l-57 -25 -30 23 c-29 21 -46 23
-251 31 -121 4 -251 6 -290 4 -90 -5 -162 -36 -243 -105 l-62 -53 -49 50 c-38
39 -63 54 -117 72 -69 23 -71 23 -709 27 -465 2 -655 0 -696 -8 -42 -9 -78 -9
-140 -2 -52 7 -426 12 -989 14 l-905 2 -58 -26 c-31 -15 -82 -51 -113 -80
-106 -100 -143 -196 -151 -388 -6 -147 11 -258 53 -344 56 -114 198 -238 314
-274 42 -13 91 -17 210 -17 171 1 221 11 316 65 30 16 60 30 67 30 7 0 26 -13
41 -29 49 -51 64 -53 317 -47 129 3 248 5 264 5 17 0 354 -2 750 -4 396 -2
907 -6 1135 -9 l415 -6 53 25 c67 31 78 31 166 -1 57 -21 95 -27 192 -31 148
-7 233 7 332 53 41 19 83 34 94 34 10 0 45 -14 78 -30 33 -17 86 -37 117 -45
78 -21 310 -20 383 0 86 24 125 28 161 16 53 -17 2176 -19 2209 -1 24 12 42
27 109 90 l31 28 0 137 c0 141 -6 167 -44 197 -19 16 -21 26 -19 118 2 95 4
104 32 147 31 46 31 47 31 185 0 205 7 201 -335 196 -210 -3 -221 -4 -252 -26
l-32 -22 -73 21 c-64 19 -104 22 -341 26 -147 3 -288 2 -312 -1 -43 -7 -59
-19 -104 -76 l-20 -25 -44 50 -45 50 -285 0 -285 0 -27 -25 c-15 -14 -36 -42
-46 -62 -11 -21 -24 -38 -30 -38 -5 0 -39 22 -74 50 -96 73 -165 92 -345 96
-80 2 -167 -1 -193 -7z m-4410 -140 c17 -6 43 -21 58 -34 l26 -25 10 30 11 30
89 0 89 0 0 -155 0 -155 -99 0 -99 0 -6 34 c-15 79 -89 121 -156 88 -69 -34
-110 -180 -80 -288 25 -90 111 -145 191 -124 36 10 102 56 126 87 11 14 20 8
75 -52 35 -37 64 -71 66 -75 5 -12 -96 -87 -151 -114 -182 -86 -407 -37 -508
110 -115 168 -83 442 67 573 88 78 186 101 291 70z m3840 0 c17 -6 43 -21 58
-34 l26 -25 10 30 11 30 89 0 89 0 0 -155 0 -155 -99 0 -99 0 -6 34 c-15 79
-89 121 -156 88 -69 -34 -110 -180 -80 -288 25 -90 111 -145 191 -124 36 10
102 56 126 87 11 14 20 8 75 -52 35 -37 64 -71 66 -75 5 -12 -96 -87 -151
-114 -182 -86 -407 -37 -508 110 -115 168 -83 442 67 573 88 78 186 101 291
70z m886 1 c159 -49 247 -189 247 -390 0 -221 -105 -362 -298 -400 -81 -16
-192 -7 -269 21 -79 30 -161 112 -193 194 -21 52 -24 77 -25 185 0 116 2 129
28 185 15 32 39 74 53 92 33 43 107 93 169 115 71 25 204 24 288 -2z m-4043
-70 c0 -68 -1 -70 -25 -70 -14 0 -25 -2 -25 -5 0 -3 17 -40 38 -83 21 -42 43
-87 48 -99 8 -18 16 -8 61 83 l52 104 -29 0 -30 0 0 70 0 70 150 0 150 0 0
-69 0 -70 -31 -3 c-30 -3 -38 -15 -135 -183 l-104 -180 3 -65 c2 -63 3 -65 30
-68 27 -3 27 -4 27 -73 l0 -69 -175 0 -175 0 0 70 0 70 30 0 30 0 0 71 0 71
-107 179 c-98 161 -111 178 -135 179 -28 0 -28 0 -28 70 l0 70 190 0 190 0 0
-70z m991 44 c60 -28 98 -78 105 -140 9 -74 -9 -128 -57 -166 l-40 -32 34 -18
c80 -41 117 -123 99 -221 -14 -76 -43 -114 -111 -146 -56 -26 -58 -26 -333
-29 l-278 -4 0 71 0 71 30 0 30 0 0 250 0 250 -30 0 -30 0 0 71 0 70 268 -3
c248 -3 270 -5 313 -24z m859 -94 l0 -120 -95 0 -95 0 0 50 0 50 -90 0 -90 0
0 -80 0 -80 105 0 105 0 0 -75 0 -75 -105 0 -105 0 0 -90 0 -90 90 0 90 0 0
50 0 50 95 0 95 0 0 -125 0 -125 -335 0 -335 0 0 75 0 75 35 0 35 0 -2 243 -3
242 -32 3 -33 3 0 70 0 69 335 0 335 0 0 -120z m605 97 c80 -36 124 -104 125
-192 0 -72 -26 -114 -88 -145 -51 -25 -65 -40 -37 -40 8 0 32 -17 53 -37 39
-37 62 -90 62 -143 0 -15 5 -31 12 -38 17 -17 38 4 38 39 0 26 3 29 35 29 l35
0 0 -62 c0 -119 -56 -179 -164 -177 -142 2 -200 59 -213 214 -3 41 -11 82 -17
91 -7 8 -31 18 -54 21 l-42 6 0 -87 0 -86 35 0 35 0 0 -75 0 -75 -180 0 -180
0 0 75 0 75 30 0 30 0 0 245 0 245 -30 0 -30 0 0 71 0 71 253 -4 c215 -3 258
-6 292 -21z m2508 -54 c13 -43 57 -185 98 -315 l73 -238 38 0 38 0 0 -75 0
-75 -220 0 -220 0 0 75 0 75 50 0 c28 0 50 2 50 4 0 1 -5 17 -11 35 l-11 31
-114 0 c-114 0 -115 0 -124 -26 -16 -40 -13 -44 30 -44 l40 0 0 -75 0 -75
-175 0 -175 0 0 75 0 75 38 0 37 0 73 238 c40 130 72 240 72 245 0 4 -9 7 -20
7 -18 0 -20 7 -20 70 l0 70 215 0 214 0 24 -77z m842 54 c80 -36 124 -104 125
-192 0 -72 -26 -114 -88 -145 -51 -25 -65 -40 -37 -40 8 0 32 -17 53 -37 39
-37 62 -90 62 -143 0 -15 5 -31 12 -38 17 -17 38 4 38 39 0 26 3 29 35 29 l35
0 0 -62 c0 -119 -56 -179 -164 -177 -142 2 -200 59 -213 214 -3 41 -11 82 -17
91 -7 8 -31 18 -54 21 l-42 6 0 -87 0 -86 35 0 35 0 0 -75 0 -75 -180 0 -180
0 0 75 0 75 30 0 30 0 0 245 0 245 -30 0 -30 0 0 71 0 71 253 -4 c215 -3 258
-6 292 -21z m645 -47 l0 -70 -35 0 -35 0 0 -245 0 -245 35 0 35 0 0 -75 0 -75
-185 0 -185 0 0 75 0 75 35 0 35 0 -2 243 -3 242 -32 3 -33 3 0 70 0 69 185 0
185 0 0 -70z"/>
<path d="M5141 921 c-67 -71 -77 -271 -20 -383 21 -42 45 -58 84 -58 69 0 106
63 113 195 6 121 -10 195 -52 240 -43 46 -86 48 -125 6z"/>
<path d="M2017 953 c-4 -3 -7 -42 -7 -85 l0 -78 55 0 c83 0 115 46 86 123 -13
34 -111 64 -134 40z"/>
<path d="M2012 563 l3 -98 63 2 c45 1 70 7 83 19 42 38 41 121 -2 157 -15 12
-39 17 -85 17 l-65 0 3 -97z"/>
<path d="M3510 865 l0 -95 45 0 c84 0 124 42 111 115 -9 45 -54 75 -113 75
l-43 0 0 -95z"/>
<path d="M6011 810 c-18 -58 -34 -111 -36 -117 -3 -10 15 -13 69 -13 l74 0
-32 103 c-18 56 -35 109 -38 117 -3 8 -20 -32 -37 -90z"/>
<path d="M6860 865 l0 -95 45 0 c84 0 124 42 111 115 -9 45 -54 75 -113 75
l-43 0 0 -95z"/>
</g>
</svg>
